<svg width="151" height="55" viewBox="0 0 151 55" fill="none" xmlns="http://www.w3.org/2000/svg">
<path d="M73.637 20.0305L76.0572 22.4849V27.5207L73.637 29.9751H68.129V34.8416H64.8945V20.0305H73.637ZM72.8241 25.9344V24.0724L71.9693 23.1617H68.1304V26.8433H71.9693L72.8241 25.9344ZM79.292 34.8416L77.122 32.7475V26.3575L79.292 24.2622H84.8836L87.0535 26.3575V32.7475L84.8836 34.8416H79.292ZM80.8775 32.0909H83.2977L84.0273 31.351V27.7539L83.2977 27.014H80.8775L80.148 27.7539V31.351L80.8775 32.0909ZM102.054 24.2622L104.119 26.3575V34.8416H101.093V27.6694L100.447 27.0143H99.8206L97.9428 28.9186V34.843H94.9184V27.6709L94.2709 27.0158H93.6449L91.7672 28.9201V34.8445H88.7427V24.3716L91.6002 24.1178L91.7052 25.9579L93.2075 24.2651H95.8782L97.7143 26.1272L99.3835 24.2651H102.054L102.054 24.2622ZM108.062 34.8416L105.892 32.7475V26.3575L108.062 24.2622H113.654L115.824 26.3575V32.7475L113.654 34.8416H108.062ZM109.648 32.0909H112.068L112.798 31.351V27.7539L112.068 27.014H109.648L108.918 27.7539V31.351L109.648 32.0909ZM125.296 27.0129H122.687L120.726 29.0016V34.8416H117.701V24.3687L120.559 24.1149L120.664 26.0397L122.25 24.2625H124.815L125.296 27.0129ZM129.363 27.9863L134.788 29.107V32.7463L132.64 34.8404H126.13L126.568 32.3012H131.053L131.762 31.5599V31.1163L126.337 29.9956V26.3563L128.507 24.261H133.994L134.453 26.8002H130.092L129.362 27.5401V27.9836L129.363 27.9863ZM142.675 29.0019L146.076 33.1491V34.8419H143.05V34.0597L140.004 30.3576H139.462V34.8433H136.437V20.0323H139.462V27.6072H140.004L142.696 24.8988V24.2639H145.721V25.9567L142.674 29.0037L142.675 29.0019ZM147.682 23.1403V19.819H150.957V23.1403H147.682ZM147.807 34.8404V24.261H150.832V34.8404H147.807ZM66.375 4.10139V11.8524C66.375 12.763 66.5446 13.5205 66.8839 14.1225C67.3872 15.0332 68.2354 15.4876 69.4293 15.4876C70.8601 15.4876 71.8333 14.9947 72.3476 14.0104C72.6251 13.4753 72.7636 12.756 72.7636 11.8509V4.09992H74.4557V11.1424C74.4557 12.685 74.2497 13.8711 73.8392 14.7025C73.0842 16.2163 71.66 16.9727 69.5656 16.9727C67.4711 16.9727 66.0484 16.2163 65.3 14.7025C64.8895 13.8711 64.6836 12.685 64.6836 11.1424V4.09992H66.3756L66.375 4.10139ZM76.227 7.49897H77.6659V8.79569C78.0926 8.26058 78.5436 7.87714 79.0215 7.64361C79.4979 7.41008 80.0282 7.2942 80.6126 7.2942C81.8912 7.2942 82.7556 7.746 83.2051 8.65106C83.4516 9.14657 83.5754 9.85507 83.5754 10.7766V16.6409H82.0356V10.879C82.0356 10.3221 81.9548 9.8715 81.792 9.53031C81.5227 8.96116 81.034 8.67717 80.3276 8.67717C79.9683 8.67717 79.6735 8.71414 79.4433 8.78777C79.0273 8.91334 78.6639 9.16329 78.3489 9.53852C78.0958 9.84011 77.9317 10.1514 77.8562 10.4735C77.7807 10.7956 77.7431 11.2545 77.7431 11.8524V16.6411H76.2275L76.227 7.49897ZM85.7624 4.10139H87.3023V5.84316H85.7624V4.10139ZM85.7624 7.54151H87.3023V16.6411H85.7624V7.54151ZM90.2258 7.49927L91.9595 14.7043L93.719 7.49927H95.4191L97.1864 14.6606L99.0306 7.49927H100.546L97.9281 16.6411H96.3547L94.52 9.56463L92.7447 16.6411H91.1712L88.5705 7.49927H90.229H90.2258ZM107.092 7.7504C107.688 8.05492 108.143 8.44922 108.456 8.9327C108.757 9.39418 108.958 9.93194 109.057 10.5463C109.146 10.9667 109.191 11.6382 109.191 12.5612H102.634C102.662 13.4909 102.876 14.2375 103.277 14.7999C103.679 15.3623 104.299 15.6437 105.14 15.6437C105.925 15.6437 106.552 15.3776 107.019 14.8466C107.282 14.5361 107.472 14.1699 107.576 13.7749H109.066C109.027 14.1108 108.896 14.4848 108.674 14.897C108.452 15.3092 108.206 15.6466 107.932 15.9086C107.476 16.3645 106.91 16.6717 106.236 16.8301C105.874 16.9216 105.465 16.9665 105.008 16.9665C103.893 16.9665 102.947 16.5528 102.172 15.7243C101.397 14.8959 101.009 13.7367 101.009 12.2461C101.009 10.7554 101.4 9.58546 102.18 8.66954C102.961 7.75362 103.981 7.29479 105.243 7.29479C105.878 7.29479 106.495 7.44734 107.092 7.7504ZM107.634 11.3393C107.572 10.673 107.431 10.142 107.209 9.74359C106.797 9.0037 106.109 8.63375 105.147 8.63375C104.456 8.63375 103.879 8.88899 103.411 9.39829C102.943 9.90759 102.696 10.5545 102.668 11.3407H107.633L107.634 11.3393ZM111.032 7.4978H112.471V9.07733C112.589 8.77017 112.877 8.39612 113.338 7.95517C113.798 7.51423 114.328 7.29303 114.929 7.29303C114.957 7.29303 115.004 7.29567 115.071 7.30124C115.138 7.30681 115.253 7.31767 115.416 7.33527V8.95705C115.325 8.94062 115.243 8.9283 115.168 8.92302C115.093 8.91774 115.009 8.91481 114.92 8.91481C114.157 8.91481 113.57 9.16329 113.161 9.66145C112.752 10.1596 112.546 10.7331 112.546 11.3815V16.6397H111.032V7.4978ZM117.131 13.7716C117.176 14.2836 117.306 14.6767 117.517 14.9498C117.906 15.4453 118.583 15.6924 119.544 15.6924C120.116 15.6924 120.621 15.5683 121.055 15.321C121.49 15.0739 121.708 14.6902 121.708 14.173C121.708 13.7799 121.535 13.4809 121.186 13.2761C120.964 13.1506 120.524 13.0059 119.868 12.8408L118.645 12.5336C117.864 12.3397 117.288 12.124 116.917 11.8852C116.254 11.4701 115.925 10.8957 115.925 10.1611C115.925 9.29561 116.236 8.59679 116.859 8.06167C117.481 7.52655 118.319 7.25899 119.371 7.25899C120.746 7.25899 121.74 7.66297 122.348 8.47122C122.729 8.98316 122.915 9.53471 122.902 10.127H121.472C121.443 9.78173 121.32 9.46782 121.101 9.185C120.745 8.78367 120.128 8.58153 119.249 8.58153C118.664 8.58153 118.219 8.69213 117.918 8.91334C117.616 9.13454 117.466 9.42675 117.466 9.78965C117.466 10.1869 117.663 10.5037 118.061 10.7425C118.29 10.8845 118.626 11.0086 119.073 11.1181L120.093 11.3651C121.202 11.6326 121.946 11.892 122.322 12.1419C122.912 12.5351 123.207 13.152 123.207 13.9943C123.207 14.8366 122.898 15.5111 122.282 16.1034C121.665 16.6945 120.727 16.9906 119.466 16.9906C118.108 16.9906 117.147 16.6819 116.581 16.065C116.016 15.448 115.713 14.6834 115.674 13.7731H117.131V13.7716ZM130.191 7.4978H131.866C131.653 8.08484 131.178 9.42264 130.443 11.5112C129.893 13.0825 129.433 14.3643 129.063 15.3538C128.189 17.6853 127.572 19.1064 127.214 19.6183C126.855 20.1303 126.238 20.3855 125.365 20.3855C125.152 20.3855 124.988 20.3773 124.872 20.3597C124.729 20.3363 124.587 20.3048 124.447 20.2655V18.8664C124.711 18.94 124.9 18.9864 125.017 19.0028C125.135 19.0192 125.238 19.0286 125.328 19.0286C125.608 19.0286 125.814 18.9823 125.946 18.8881C126.077 18.7949 126.19 18.6778 126.279 18.5428C126.307 18.4976 126.408 18.2644 126.582 17.844C126.755 17.4236 126.882 17.1108 126.96 16.9061L123.627 7.49516H125.344L127.76 14.9416L130.193 7.49516L130.191 7.4978ZM133.479 4.94514H135.01V7.4978H136.449V8.75227H135.01V14.7189C135.01 15.037 135.117 15.2514 135.331 15.3591C135.449 15.4219 135.644 15.4533 135.92 15.4533C136.097 15.4546 136.275 15.4432 136.45 15.4189V16.6394C136.277 16.6913 136.095 16.728 135.908 16.75C135.72 16.7732 135.516 16.784 135.298 16.784C134.591 16.784 134.111 16.601 133.859 16.2339C133.606 15.8666 133.481 15.3902 133.481 14.8046V8.75169H132.26V7.49721H133.481V4.94455L133.479 4.94514ZM143.706 7.74893C144.302 8.05345 144.757 8.44775 145.07 8.93123C145.371 9.39271 145.572 9.93047 145.671 10.5448C145.76 10.9652 145.805 11.6367 145.805 12.5597H139.248C139.276 13.4894 139.49 14.2361 139.891 14.7985C140.292 15.3609 140.913 15.6422 141.754 15.6422C142.539 15.6422 143.166 15.3761 143.634 14.8451C143.896 14.5347 144.086 14.1684 144.19 13.7734H145.68C145.641 14.1093 145.51 14.4834 145.288 14.8956C145.066 15.3078 144.82 15.6451 144.546 15.9071C144.09 16.363 143.525 16.6702 142.85 16.8286C142.488 16.9201 142.079 16.965 141.622 16.965C140.507 16.965 139.562 16.5514 138.786 15.7229C138.011 14.8944 137.623 13.7353 137.623 12.2446C137.623 10.754 138.014 9.58399 138.794 8.66808C139.575 7.75216 140.596 7.29332 141.857 7.29332C142.492 7.29332 143.109 7.44587 143.706 7.74893ZM144.248 11.3378C144.186 10.6715 144.045 10.1405 143.823 9.74212C143.411 9.00223 142.723 8.63228 141.761 8.63228C141.071 8.63228 140.493 8.88752 140.025 9.39682C139.558 9.90612 139.31 10.553 139.282 11.3393H144.247L144.248 11.3378ZM148.028 4.94367H149.56V7.49633H150.999V8.75081H149.56V14.7175C149.56 15.0355 149.666 15.25 149.88 15.3576C149.998 15.4204 150.194 15.4518 150.47 15.4518C150.647 15.4532 150.824 15.4417 151 15.4175V16.6379C150.826 16.6898 150.645 16.7265 150.458 16.7485C150.269 16.7717 150.066 16.7826 149.848 16.7826C149.141 16.7826 148.661 16.5995 148.409 16.2325C148.156 15.8652 148.03 15.3887 148.03 14.8031V8.75022H146.81V7.49575H148.03V4.94309L148.028 4.94367ZM66.095 42.3238L67.6927 48.9623L69.3133 42.3238H70.8801L72.5088 48.9227L74.2075 42.3238H75.6033L73.1912 50.7478H71.7401L70.0496 44.2267L68.4128 50.7478H66.9617L64.5658 42.3238H66.095ZM81.7309 47.0196C81.7659 47.6747 81.9126 48.2072 82.1712 48.6167C82.6639 49.3825 83.5335 49.7647 84.7786 49.7647C85.3357 49.7647 85.8446 49.6814 86.3022 49.5136C87.1892 49.1888 87.6321 48.6071 87.6321 47.7677C87.6321 47.1384 87.4449 46.6907 87.068 46.4232C86.687 46.1612 86.0908 45.9332 85.2805 45.7393L83.7849 45.3858C82.8077 45.1552 82.1171 44.9011 81.7118 44.6227C81.0106 44.1407 80.6606 43.4202 80.6606 42.4605C80.6606 41.4217 81.0051 40.57 81.6945 39.9038C82.3836 39.2375 83.3596 38.9045 84.6221 38.9045C85.7838 38.9045 86.7718 39.1967 87.5846 39.7809C88.3975 40.365 88.8028 41.3002 88.8028 42.5846H87.3518C87.2777 41.9662 87.1189 41.4912 86.8753 41.1609C86.4243 40.5574 85.6586 40.2573 84.5775 40.2573C83.7053 40.2573 83.0781 40.4512 82.6957 40.8388C82.3133 41.2263 82.1235 41.6784 82.1235 42.1915C82.1235 42.758 82.3483 43.1717 82.7993 43.4337C83.0955 43.6015 83.7632 43.8118 84.8063 44.063L86.3543 44.4329C87.1001 44.6119 87.6761 44.8548 88.0825 45.1646C88.7837 45.7053 89.1352 46.4886 89.1352 47.5166C89.1352 48.7957 88.6871 49.7116 87.7932 50.2617C86.8982 50.8118 85.8576 51.0876 84.673 51.0876C83.2919 51.0876 82.2097 50.7202 81.4278 49.9859C80.6458 49.2569 80.2634 48.2685 80.2781 47.0211H81.7292L81.7309 47.0196ZM92.7565 50.7475H91.3607V45.8878L89.9797 46.7547V45.6927L91.3607 44.8257V39.192H92.7565V43.948L94.1361 43.081V44.1431L92.7565 45.01V50.7475ZM96.4056 42.3235V47.9162C96.4056 48.3462 96.4715 48.6971 96.602 48.97C96.843 49.4737 97.294 49.7248 97.9535 49.7248C98.8998 49.7248 99.5446 49.2839 99.8877 48.4035C100.073 47.9311 100.168 47.2842 100.168 46.461V42.3235H101.564V50.7475H100.244L100.261 49.5054C100.092 49.8147 99.8669 50.0892 99.5984 50.3148C99.0763 50.7557 98.4421 50.9755 97.6964 50.9755C96.5346 50.9755 95.7431 50.5741 95.3219 49.7729C95.0931 49.3428 94.98 48.7681 94.98 48.0502V42.3238H96.4067L96.4056 42.3235ZM103.488 42.3631H104.853V43.4797C105.133 43.0975 105.439 42.8012 105.771 42.5911C106.242 42.2772 106.797 42.1188 107.435 42.1188C108.379 42.1188 109.179 42.4846 109.838 43.2163C110.496 43.948 110.826 44.9924 110.826 46.3504C110.826 48.1864 110.35 49.4969 109.401 50.2831C108.8 50.7813 108.099 51.0298 107.299 51.0298C106.67 51.0298 106.144 50.8904 105.719 50.6135C105.469 50.4565 105.192 50.1863 104.885 49.804V54.1067H103.49V42.3643L103.488 42.3631ZM108.741 48.9662C109.174 48.4134 109.391 47.5861 109.391 46.4845C109.391 45.813 109.295 45.2368 109.103 44.7536C108.739 43.8253 108.076 43.3612 107.111 43.3612C106.146 43.3612 105.476 43.8511 105.119 44.8328C104.926 45.357 104.83 46.023 104.83 46.8298C104.83 47.4796 104.926 48.0323 105.119 48.4897C105.482 49.3607 106.146 49.7946 107.111 49.7946C107.765 49.7946 108.307 49.5174 108.741 48.9647V48.9662ZM113.11 48.1048C113.152 48.5771 113.272 48.9389 113.467 49.19C113.826 49.6459 114.448 49.8739 115.335 49.8739C115.863 49.8739 116.327 49.7606 116.728 49.5312C117.129 49.3018 117.33 48.9509 117.33 48.4733C117.33 48.1115 117.17 47.8358 116.849 47.6474C116.645 47.5327 116.24 47.3989 115.635 47.2461L114.509 46.9636C113.789 46.7861 113.258 46.5854 112.916 46.3657C112.306 45.9834 112.002 45.4539 112.002 44.7767C112.002 43.9796 112.289 43.3351 112.862 42.8425C113.436 42.3497 114.207 42.1026 115.177 42.1026C116.445 42.1026 117.359 42.4752 117.921 43.2192C118.272 43.6916 118.443 44.1994 118.432 44.7454H117.113C117.087 44.4279 116.968 44.1256 116.771 43.8773C116.443 43.5073 115.873 43.3216 115.064 43.3216C114.524 43.3216 114.115 43.424 113.838 43.6273C113.561 43.8306 113.421 44.0996 113.421 44.4341C113.421 44.7999 113.604 45.0921 113.969 45.3119C114.179 45.443 114.49 45.5577 114.902 45.6572L115.842 45.8851C116.864 46.1321 117.549 46.3698 117.897 46.6004C118.439 46.9621 118.711 47.5312 118.711 48.3066C118.711 49.082 118.427 49.7046 117.859 50.2491C117.291 50.7951 116.426 51.0667 115.264 51.0667C114.013 51.0667 113.126 50.7827 112.605 50.2136C112.084 49.6444 111.806 48.9412 111.769 48.1019H113.111L113.11 48.1048ZM120.096 39.1935H121.438V45.9015L125.017 42.3235H126.801L123.608 45.455L126.98 50.7461H125.196L122.583 46.4598L121.437 47.5846V50.7461H120.095V39.192L120.096 39.1935ZM129.306 42.3235V47.9162C129.306 48.3462 129.372 48.6971 129.502 48.97C129.743 49.4737 130.194 49.7248 130.854 49.7248C131.8 49.7248 132.445 49.2839 132.788 48.4035C132.974 47.9311 133.068 47.2842 133.068 46.461V42.3235H134.464V50.7475H133.145L133.161 49.5054C132.992 49.8147 132.767 50.0892 132.499 50.3148C131.977 50.7557 131.342 50.9755 130.597 50.9755C129.435 50.9755 128.643 50.5741 128.222 49.7729C127.993 49.3428 127.88 48.7681 127.88 48.0502V42.3238H129.307L129.306 42.3235ZM15.8283 23.1887L10.6408 15.0065L8.10147 15.7634V44.6474H10.8601V20.5251L13.5082 24.7022L15.8283 23.1887ZM36.1082 18.9292L29.2683 6.17966H25.1986L18.3457 18.9277L22.4154 21.1776L27.2311 12.2167L32.0382 21.1761L36.1093 18.9292H36.1082ZM45.943 44.6462V16.1773L43.3776 15.4632L38.8274 23.2301L41.1999 24.6582L43.1847 21.2703V44.6462H45.943ZM24.8647 21.1245L24.8691 44.6462H29.5035L29.4991 21.123M16.8868 26.2911L16.9128 44.6477L19.6715 44.6433L19.6454 26.2867M34.4138 26.2882V44.6447H37.1724V26.2882M43.6027 0H10.6293L0 10.7795V44.2205L10.6293 55H43.6041L54.2334 44.2205V10.7824L43.6041 0.00293375L43.6027 0ZM42.646 52.6574H11.5859L2.30995 43.2503V11.7512L11.5859 2.34407H42.6457L51.9217 11.7512V43.25L42.646 52.6574Z" fill="#262958"/>
</svg>
