<svg aria-hidden="true" style="position: absolute; width: 0; height: 0; overflow: hidden;" version="1.1" xmlns="http://www.w3.org/2000/svg" xmlns:xlink="http://www.w3.org/1999/xlink">
<defs>
<symbol id="icon-burger" viewBox="0 0 31 32">
<path d="M4.521 9.542v-1.938h21.958v1.938h-21.958zM4.521 24.396v-1.938h21.958v1.938h-21.958zM4.521 16.969v-1.938h21.958v1.938h-21.958z"></path>
</symbol>
        <symbol id="icon-place" viewBox="0 0 32 32">
            <path d="M16 29.333c-2.356 0-4.278-0.372-5.767-1.117s-2.233-1.706-2.233-2.883c0-0.533 0.161-1.028 0.483-1.483s0.772-0.85 1.35-1.183l2.1 1.967c-0.2 0.089-0.417 0.189-0.65 0.3s-0.417 0.244-0.55 0.4c0.289 0.356 0.956 0.667 2 0.933s2.133 0.4 3.267 0.4 2.228-0.133 3.283-0.4c1.056-0.267 1.728-0.578 2.017-0.933-0.156-0.178-0.356-0.322-0.6-0.433s-0.478-0.211-0.7-0.3l2.067-2c0.622 0.356 1.1 0.761 1.433 1.217s0.5 0.961 0.5 1.517c0 1.178-0.744 2.139-2.233 2.883s-3.411 1.117-5.767 1.117zM16.033 22c2.2-1.622 3.856-3.25 4.967-4.883s1.667-3.272 1.667-4.917c0-2.267-0.722-3.978-2.167-5.133s-2.944-1.733-4.5-1.733c-1.556 0-3.056 0.578-4.5 1.733s-2.167 2.867-2.167 5.133c0 1.489 0.544 3.039 1.633 4.65s2.778 3.328 5.067 5.15zM16 25.333c-3.133-2.311-5.472-4.556-7.017-6.733s-2.317-4.311-2.317-6.4c0-1.578 0.283-2.961 0.85-4.15s1.294-2.183 2.183-2.983c0.889-0.8 1.889-1.4 3-1.8s2.211-0.6 3.3-0.6 2.189 0.2 3.3 0.6c1.111 0.4 2.111 1 3 1.8s1.617 1.794 2.183 2.983c0.567 1.189 0.85 2.572 0.85 4.15 0 2.089-0.772 4.222-2.317 6.4s-3.883 4.422-7.017 6.733zM16 14.667c0.733 0 1.361-0.261 1.883-0.783s0.783-1.15 0.783-1.883c0-0.733-0.261-1.361-0.783-1.883s-1.15-0.783-1.883-0.783c-0.733 0-1.361 0.261-1.883 0.783s-0.783 1.15-0.783 1.883c0 0.733 0.261 1.361 0.783 1.883s1.15 0.783 1.883 0.783z"></path>
        </symbol>
        <symbol id="icon-group" viewBox="0 0 32 32">
            <path d="M0 24v-2.1c0-0.956 0.489-1.733 1.467-2.333s2.267-0.9 3.867-0.9c0.289 0 0.567 0.006 0.833 0.017s0.522 0.039 0.767 0.083c-0.311 0.467-0.544 0.956-0.7 1.467s-0.233 1.044-0.233 1.6v2.167h-6zM8 24v-2.167c0-0.711 0.194-1.361 0.583-1.95s0.939-1.106 1.65-1.55c0.711-0.444 1.561-0.778 2.55-1s2.061-0.333 3.217-0.333c1.178 0 2.261 0.111 3.25 0.333s1.839 0.556 2.55 1c0.711 0.444 1.256 0.961 1.633 1.55s0.567 1.239 0.567 1.95v2.167h-16zM26 24v-2.167c0-0.578-0.072-1.122-0.217-1.633s-0.361-0.989-0.65-1.433c0.244-0.044 0.494-0.072 0.75-0.083s0.517-0.017 0.783-0.017c1.6 0 2.889 0.294 3.867 0.883s1.467 1.372 1.467 2.35v2.1h-6zM10.833 21.333h10.367c-0.222-0.444-0.839-0.833-1.85-1.167s-2.128-0.5-3.35-0.5c-1.222 0-2.339 0.167-3.35 0.5s-1.617 0.722-1.817 1.167zM5.333 17.333c-0.733 0-1.361-0.261-1.883-0.783s-0.783-1.15-0.783-1.883c0-0.756 0.261-1.389 0.783-1.9s1.15-0.767 1.883-0.767c0.756 0 1.389 0.256 1.9 0.767s0.767 1.144 0.767 1.9c0 0.733-0.256 1.361-0.767 1.883s-1.144 0.783-1.9 0.783zM26.667 17.333c-0.733 0-1.361-0.261-1.883-0.783s-0.783-1.15-0.783-1.883c0-0.756 0.261-1.389 0.783-1.9s1.15-0.767 1.883-0.767c0.756 0 1.389 0.256 1.9 0.767s0.767 1.144 0.767 1.9c0 0.733-0.256 1.361-0.767 1.883s-1.144 0.783-1.9 0.783zM16 16c-1.111 0-2.056-0.389-2.833-1.167s-1.167-1.722-1.167-2.833c0-1.133 0.389-2.083 1.167-2.85s1.722-1.15 2.833-1.15c1.133 0 2.083 0.383 2.85 1.15s1.15 1.717 1.15 2.85c0 1.111-0.383 2.056-1.15 2.833s-1.717 1.167-2.85 1.167zM16 13.333c0.378 0 0.694-0.128 0.95-0.383s0.383-0.572 0.383-0.95c0-0.378-0.128-0.694-0.383-0.95s-0.572-0.383-0.95-0.383c-0.378 0-0.694 0.128-0.95 0.383s-0.383 0.572-0.383 0.95c0 0.378 0.128 0.694 0.383 0.95s0.572 0.383 0.95 0.383z"></path>
        </symbol>
        <symbol id="icon-speaker" viewBox="0 0 32 32">
            <path d="M8 29.333v-5.733c-1.267-1.156-2.25-2.506-2.95-4.050s-1.050-3.172-1.050-4.883c0-3.333 1.167-6.167 3.5-8.5s5.167-3.5 8.5-3.5c2.778 0 5.239 0.817 7.383 2.45s3.539 3.761 4.183 6.383l1.733 6.833c0.111 0.422 0.033 0.806-0.233 1.15s-0.622 0.517-1.067 0.517h-2.667v4c0 0.733-0.261 1.361-0.783 1.883s-1.15 0.783-1.883 0.783h-2.667v2.667h-2.667v-5.333h5.333v-6.667h3.6l-1.267-5.167c-0.511-2.022-1.6-3.667-3.267-4.933s-3.578-1.9-5.733-1.9c-2.578 0-4.778 0.9-6.6 2.7s-2.733 3.989-2.733 6.567c0 1.333 0.272 2.6 0.817 3.8s1.317 2.267 2.317 3.2l0.867 0.8v6.933h-2.667zM12.133 29.333h2.667l0.833-8h4.367v-2.667h-4.1l0.167-1.467c0.044-0.333 0.189-0.617 0.433-0.85s0.533-0.35 0.867-0.35h5.3v-2.667h-5.267c-1.044 0-1.944 0.344-2.7 1.033s-1.189 1.544-1.3 2.567l-1.267 12.4z"></path>
        </symbol>
        <symbol id="icon-search" viewBox="0 0 32 32">
            <path d="M26.133 28l-8.4-8.4c-0.667 0.533-1.433 0.956-2.3 1.267s-1.789 0.467-2.767 0.467c-2.422 0-4.472-0.839-6.15-2.517s-2.517-3.728-2.517-6.15c0-2.422 0.839-4.472 2.517-6.15s3.728-2.517 6.15-2.517c2.422 0 4.472 0.839 6.15 2.517s2.517 3.728 2.517 6.15c0 0.978-0.156 1.9-0.467 2.767s-0.733 1.633-1.267 2.3l8.4 8.4-1.867 1.867zM12.667 18.667c1.667 0 3.083-0.583 4.25-1.75s1.75-2.583 1.75-4.25c0-1.667-0.583-3.083-1.75-4.25s-2.583-1.75-4.25-1.75c-1.667 0-3.083 0.583-4.25 1.75s-1.75 2.583-1.75 4.25c0 1.667 0.583 3.083 1.75 4.25s2.583 1.75 4.25 1.75z"></path>
        </symbol>
        <symbol id="icon-arrow-down" viewBox="0 0 32 32">
            <path d="M14.667 5.333v16.233l-7.467-7.467-1.867 1.9 10.667 10.667 10.667-10.667-1.867-1.9-7.467 7.467v-16.233h-2.667z"></path>
        </symbol>
<symbol id="icon-logo-upsl" viewBox="0 0 88 32">
<path fill="#262958" style="fill: var(--color1, #262958)" d="M42.843 11.654l1.408 1.428v2.93l-1.408 1.428h-3.205v2.831h-1.882v-8.617h5.087zM42.37 15.089v-1.083l-0.497-0.53h-2.234v2.142h2.234l0.497-0.529zM46.134 20.271l-1.263-1.218v-3.718l1.263-1.219h3.253l1.263 1.219v3.718l-1.263 1.218h-3.253zM47.056 18.671h1.408l0.425-0.43v-2.093l-0.425-0.431h-1.408l-0.424 0.431v2.093l0.424 0.43zM59.377 14.116l1.201 1.219v4.936h-1.761v-4.173l-0.376-0.381h-0.364l-1.093 1.108v3.447h-1.76v-4.173l-0.377-0.381h-0.364l-1.092 1.108v3.447h-1.76v-6.093l1.663-0.148 0.061 1.071 0.874-0.985h1.554l1.068 1.083 0.971-1.083h1.554v-0.002zM62.872 20.271l-1.263-1.218v-3.718l1.263-1.219h3.254l1.263 1.219v3.718l-1.263 1.218h-3.254zM63.795 18.671h1.408l0.425-0.43v-2.093l-0.425-0.431h-1.408l-0.425 0.431v2.093l0.425 0.43zM72.9 15.717h-1.518l-1.141 1.157v3.398h-1.76v-6.093l1.663-0.148 0.061 1.12 0.923-1.034h1.492l0.28 1.6zM75.266 16.283l3.156 0.652v2.117l-1.25 1.218h-3.788l0.255-1.477h2.609l0.412-0.431v-0.258l-3.156-0.652v-2.117l1.263-1.219h3.192l0.267 1.477h-2.537l-0.425 0.43v0.258l0.001 0.002zM83.011 16.874l1.979 2.413v0.985h-1.761v-0.455l-1.772-2.154h-0.315v2.61h-1.76v-8.617h1.76v4.407h0.315l1.566-1.576v-0.369h1.76v0.985l-1.772 1.772zM85.924 13.463v-1.932h1.905v1.932h-1.905zM85.997 20.271v-6.155h1.76v6.155h-1.76zM38.618 2.386v4.51c0 0.53 0.099 0.971 0.296 1.321 0.293 0.53 0.786 0.794 1.481 0.794 0.832 0 1.399-0.287 1.698-0.859 0.161-0.311 0.242-0.73 0.242-1.256v-4.51h0.984v4.097c0 0.897-0.12 1.588-0.359 2.071-0.439 0.881-1.268 1.321-2.486 1.321s-2.046-0.44-2.482-1.321c-0.239-0.484-0.359-1.174-0.359-2.071v-4.097l0.984 0.001zM44.35 4.363h0.837v0.754c0.248-0.311 0.511-0.534 0.789-0.67s0.586-0.203 0.926-0.203c0.744 0 1.247 0.263 1.508 0.789 0.143 0.288 0.215 0.7 0.215 1.237v3.412h-0.896v-3.352c0-0.324-0.047-0.586-0.142-0.785-0.157-0.331-0.441-0.496-0.852-0.496-0.209 0-0.381 0.021-0.514 0.064-0.242 0.073-0.453 0.218-0.637 0.437-0.147 0.175-0.243 0.357-0.287 0.544s-0.066 0.454-0.066 0.802v2.786h-0.882l-0-5.319zM49.898 2.386h0.896v1.013h-0.896v-1.013zM49.898 4.388h0.896v5.294h-0.896v-5.294zM52.495 4.363l1.009 4.192 1.024-4.192h0.989l1.028 4.167 1.073-4.167h0.882l-1.523 5.319h-0.915l-1.067-4.117-1.033 4.117h-0.916l-1.513-5.319h0.963zM62.308 4.509c0.347 0.177 0.611 0.407 0.794 0.688 0.175 0.269 0.292 0.581 0.35 0.939 0.052 0.245 0.078 0.635 0.078 1.172h-3.815c0.016 0.541 0.141 0.975 0.374 1.303s0.595 0.491 1.084 0.491c0.457 0 0.822-0.155 1.093-0.464 0.153-0.181 0.264-0.394 0.324-0.624h0.867c-0.023 0.195-0.099 0.413-0.228 0.653s-0.272 0.436-0.432 0.589c-0.265 0.265-0.595 0.444-0.987 0.536-0.211 0.053-0.449 0.079-0.714 0.079-0.649 0-1.199-0.241-1.65-0.723s-0.677-1.156-0.677-2.024c0-0.867 0.227-1.548 0.681-2.081s1.048-0.8 1.782-0.8c0.369 0 0.728 0.089 1.076 0.265zM62.623 6.597c-0.036-0.388-0.118-0.697-0.247-0.928-0.24-0.43-0.64-0.646-1.2-0.646-0.402 0-0.738 0.149-1.010 0.445s-0.416 0.673-0.432 1.13l2.889-0.001zM64.6 4.362h0.837v0.919c0.069-0.179 0.236-0.396 0.504-0.653s0.576-0.385 0.926-0.385c0.016 0 0.044 0.002 0.083 0.005s0.106 0.010 0.201 0.020v0.944c-0.053-0.010-0.101-0.017-0.144-0.020s-0.093-0.005-0.144-0.005c-0.444 0-0.785 0.145-1.023 0.434s-0.358 0.623-0.358 1.001v3.059h-0.881v-5.319zM68.149 8.013c0.026 0.298 0.102 0.527 0.225 0.685 0.226 0.288 0.62 0.432 1.179 0.432 0.333 0 0.627-0.072 0.879-0.216s0.38-0.367 0.38-0.668c0-0.229-0.101-0.403-0.304-0.522-0.129-0.073-0.385-0.157-0.767-0.253l-0.712-0.179c-0.454-0.113-0.79-0.238-1.005-0.377-0.386-0.242-0.577-0.576-0.577-1.003 0-0.504 0.181-0.91 0.543-1.221s0.849-0.467 1.462-0.467c0.8 0 1.378 0.235 1.732 0.705 0.222 0.298 0.33 0.619 0.322 0.963h-0.832c-0.017-0.201-0.088-0.384-0.216-0.548-0.207-0.234-0.566-0.351-1.078-0.351-0.34 0-0.599 0.064-0.774 0.193s-0.263 0.299-0.263 0.51c0 0.231 0.115 0.415 0.346 0.554 0.133 0.083 0.329 0.155 0.589 0.219l0.593 0.144c0.645 0.156 1.078 0.307 1.297 0.452 0.343 0.229 0.515 0.588 0.515 1.078s-0.18 0.883-0.538 1.227c-0.359 0.344-0.905 0.516-1.638 0.516-0.79 0-1.349-0.18-1.679-0.539s-0.505-0.804-0.528-1.333h0.848v-0.001zM75.748 4.362h0.975c-0.124 0.342-0.4 1.12-0.828 2.335-0.32 0.914-0.588 1.66-0.803 2.236-0.508 1.357-0.868 2.183-1.076 2.481s-0.568 0.446-1.076 0.446c-0.124 0-0.219-0.005-0.287-0.015-0.083-0.014-0.166-0.032-0.247-0.055v-0.814c0.154 0.043 0.264 0.070 0.332 0.079s0.129 0.015 0.181 0.015c0.163 0 0.283-0.027 0.36-0.082s0.142-0.122 0.194-0.201c0.016-0.026 0.075-0.162 0.176-0.407s0.175-0.427 0.22-0.546l-1.939-5.475h0.999l1.406 4.332 1.416-4.332-0.001 0.002zM77.66 2.877h0.891v1.485h0.837v0.73h-0.837v3.471c0 0.185 0.062 0.31 0.187 0.372 0.069 0.037 0.182 0.055 0.343 0.055 0.103 0.001 0.207-0.006 0.308-0.020v0.71c-0.101 0.030-0.207 0.052-0.315 0.064s-0.228 0.020-0.355 0.020c-0.411 0-0.691-0.106-0.837-0.32s-0.22-0.491-0.22-0.832v-3.522h-0.71v-0.73h0.71v-1.485l-0.001 0zM83.611 4.508c0.347 0.177 0.612 0.407 0.794 0.688 0.175 0.269 0.292 0.581 0.35 0.939 0.052 0.245 0.078 0.635 0.078 1.172h-3.815c0.016 0.541 0.141 0.975 0.374 1.303s0.595 0.491 1.084 0.491c0.457 0 0.822-0.155 1.094-0.464 0.152-0.181 0.263-0.394 0.323-0.624h0.867c-0.023 0.195-0.099 0.413-0.228 0.653s-0.272 0.436-0.432 0.588c-0.265 0.265-0.594 0.444-0.987 0.536-0.211 0.053-0.449 0.079-0.714 0.079-0.649 0-1.199-0.241-1.65-0.723s-0.677-1.156-0.677-2.024c0-0.867 0.228-1.548 0.681-2.081s1.048-0.8 1.782-0.8c0.369 0 0.728 0.089 1.076 0.265zM83.926 6.597c-0.036-0.388-0.118-0.697-0.247-0.928-0.24-0.43-0.64-0.646-1.2-0.646-0.401 0-0.738 0.149-1.010 0.445s-0.416 0.673-0.432 1.13l2.889-0.001zM86.125 2.876h0.891v1.485h0.837v0.73h-0.837v3.472c0 0.185 0.062 0.31 0.186 0.372 0.069 0.037 0.183 0.055 0.343 0.055 0.103 0.001 0.206-0.006 0.308-0.020v0.71c-0.101 0.030-0.207 0.052-0.315 0.064-0.11 0.014-0.228 0.020-0.355 0.020-0.411 0-0.691-0.107-0.837-0.32s-0.221-0.491-0.221-0.832v-3.522h-0.71v-0.73h0.71v-1.485l-0.001 0zM38.455 24.625l0.93 3.862 0.943-3.862h0.912l0.948 3.839 0.988-3.839h0.812l-1.403 4.901h-0.844l-0.984-3.794-0.952 3.794h-0.844l-1.394-4.901h0.89zM47.553 27.357c0.020 0.381 0.106 0.691 0.256 0.929 0.287 0.446 0.793 0.668 1.517 0.668 0.324 0 0.62-0.048 0.886-0.146 0.516-0.189 0.774-0.527 0.774-1.016 0-0.366-0.109-0.627-0.328-0.782-0.222-0.152-0.569-0.285-1.040-0.398l-0.87-0.206c-0.569-0.134-0.97-0.282-1.206-0.444-0.408-0.28-0.612-0.7-0.612-1.258 0-0.604 0.2-1.1 0.602-1.488s0.969-0.581 1.703-0.581c0.676 0 1.251 0.17 1.724 0.51s0.709 0.884 0.709 1.631h-0.844c-0.043-0.36-0.136-0.636-0.277-0.828-0.262-0.351-0.708-0.526-1.337-0.526-0.507 0-0.872 0.113-1.095 0.338s-0.333 0.488-0.333 0.787c0 0.33 0.131 0.57 0.393 0.723 0.172 0.098 0.561 0.22 1.168 0.366l0.901 0.215c0.434 0.104 0.769 0.245 1.005 0.426 0.408 0.315 0.612 0.77 0.612 1.368 0 0.744-0.261 1.277-0.781 1.597s-1.126 0.481-1.815 0.481c-0.804 0-1.433-0.214-1.888-0.641-0.455-0.424-0.677-0.999-0.669-1.725h0.844l0.001-0.001zM53.967 29.526h-0.812v-2.827l-0.803 0.504v-0.618l0.803-0.504v-3.278h0.812v2.767l0.803-0.504v0.618l-0.803 0.504v3.338zM56.091 24.625v3.254c0 0.25 0.038 0.454 0.114 0.613 0.14 0.293 0.403 0.439 0.786 0.439 0.551 0 0.926-0.257 1.125-0.769 0.108-0.275 0.163-0.651 0.163-1.13v-2.407h0.812v4.901h-0.768l0.010-0.723c-0.098 0.18-0.229 0.34-0.386 0.471-0.304 0.257-0.673 0.384-1.107 0.384-0.676 0-1.136-0.234-1.382-0.7-0.133-0.25-0.199-0.585-0.199-1.002v-3.332l0.829-0zM60.211 24.648h0.794v0.65c0.163-0.222 0.341-0.395 0.534-0.517 0.274-0.183 0.597-0.275 0.968-0.275 0.549 0 1.015 0.213 1.398 0.639s0.575 1.033 0.575 1.823c0 1.068-0.277 1.831-0.829 2.288-0.35 0.29-0.758 0.434-1.223 0.434-0.366 0-0.672-0.081-0.919-0.242-0.145-0.091-0.307-0.249-0.485-0.471v2.503h-0.812v-6.832l-0.001-0.001zM63.267 28.489c0.252-0.322 0.378-0.803 0.378-1.444 0-0.391-0.056-0.726-0.168-1.007-0.212-0.54-0.598-0.81-1.159-0.81s-0.951 0.285-1.159 0.856c-0.112 0.305-0.168 0.692-0.168 1.162 0 0.378 0.056 0.7 0.168 0.966 0.211 0.507 0.598 0.759 1.159 0.759 0.38 0 0.696-0.161 0.948-0.483v0.001zM65.809 27.988c0.024 0.275 0.094 0.485 0.208 0.631 0.209 0.265 0.571 0.398 1.087 0.398 0.307 0 0.577-0.066 0.81-0.199s0.35-0.338 0.35-0.616c0-0.21-0.093-0.371-0.28-0.481-0.119-0.067-0.354-0.145-0.706-0.233l-0.655-0.164c-0.419-0.103-0.728-0.22-0.927-0.348-0.355-0.222-0.532-0.53-0.532-0.924 0-0.464 0.167-0.839 0.5-1.125s0.783-0.43 1.347-0.43c0.738 0 1.27 0.217 1.597 0.65 0.204 0.275 0.304 0.57 0.297 0.888h-0.767c-0.015-0.185-0.084-0.361-0.199-0.505-0.191-0.215-0.522-0.323-0.993-0.323-0.314 0-0.552 0.060-0.713 0.178s-0.243 0.275-0.243 0.469c0 0.213 0.106 0.383 0.319 0.511 0.122 0.076 0.303 0.143 0.543 0.201l0.547 0.133c0.595 0.144 0.993 0.282 1.196 0.416 0.315 0.21 0.474 0.542 0.474 0.993s-0.165 0.813-0.496 1.13c-0.33 0.318-0.834 0.476-1.51 0.476-0.728 0-1.244-0.165-1.547-0.496s-0.465-0.74-0.486-1.229h0.781l-0.001 0.002zM69.874 22.803h0.781v3.903l2.082-2.082h1.038l-1.858 1.822 1.962 3.078h-1.038l-1.52-2.494-0.667 0.654v1.839h-0.781v-6.722l0.001 0.001zM75.233 24.625v3.254c0 0.25 0.038 0.454 0.114 0.613 0.14 0.293 0.403 0.439 0.787 0.439 0.55 0 0.926-0.257 1.125-0.769 0.108-0.275 0.163-0.651 0.163-1.13v-2.407h0.812v4.901h-0.767l0.009-0.723c-0.098 0.18-0.229 0.34-0.385 0.471-0.304 0.257-0.673 0.384-1.107 0.384-0.676 0-1.137-0.234-1.382-0.7-0.133-0.25-0.199-0.585-0.199-1.002v-3.332l0.83-0zM9.209 13.492l-3.018-4.761-1.477 0.44v16.805h1.605v-14.035l1.541 2.43 1.35-0.881zM21.008 11.013l-3.98-7.418h-2.368l-3.987 7.417 2.368 1.309 2.802-5.214 2.797 5.213 2.368-1.307zM26.73 25.976v-16.564l-1.493-0.415-2.647 4.519 1.38 0.831 1.155-1.971v13.601h1.605zM14.467 12.291l0.003 13.685h2.696l-0.003-13.686zM9.825 15.297l0.015 10.68 1.605-0.003-0.015-10.68zM20.023 15.295v10.68h1.605v-10.68zM25.369 0h-19.185l-6.184 6.272v19.457l6.184 6.272h19.185l6.184-6.272v-19.455l-6.185-6.273zM24.812 30.637h-18.071l-5.397-5.473v-18.327l5.397-5.473h18.071l5.397 5.473v18.327l-5.397 5.473z"></path>
</symbol>
</defs>
</svg>
